<svg width="624" height="606" viewBox="0 0 624 606" fill="none" xmlns="http://www.w3.org/2000/svg">
<circle cx="312" cy="303" r="303" fill="url(#paint0_radial_306_101)" fill-opacity="0.2"/>
<circle cx="312" cy="303" r="303" fill="url(#paint1_linear_306_101)" fill-opacity="0.2"/>
<circle cx="312" cy="302" r="264" fill="url(#paint2_radial_306_101)" fill-opacity="0.2"/>
<circle cx="312" cy="302" r="264" fill="url(#paint3_linear_306_101)" fill-opacity="0.2"/>
<g clip-path="url(#clip0_306_101)">
<path d="M623.843 562.235C620.949 556.993 612.935 554.554 607.745 552.695C596.206 548.561 584.132 545.863 572.144 543.409C555.009 539.903 537.716 537.169 520.393 534.777C499.247 531.857 478.026 529.484 456.773 527.493C432.739 525.242 408.667 523.468 384.557 522.17C359.035 520.776 333.492 519.893 307.927 519.52C282.219 519.159 256.501 519.34 230.805 520.217C206.204 521.057 181.616 522.526 157.117 524.938C134.987 527.117 112.902 530.04 91.0688 534.284C72.3835 537.916 53.7858 542.477 35.8902 549.023C32.1508 550.391 28.4497 551.856 24.787 553.419L26.5131 554.747C33.1446 538.477 40.4461 518.602 30.0857 502.167C26.0883 495.825 18.8835 490.323 10.9993 491.332C4.60992 492.15 -1.67714 498.663 0.406679 505.435C2.20989 511.295 10.3781 513.991 14.8821 509.591C15.0407 509.424 15.1476 509.215 15.1897 508.989C15.2319 508.763 15.2075 508.529 15.1195 508.317C15.0315 508.104 14.8837 507.922 14.694 507.792C14.5044 507.662 14.2811 507.59 14.0512 507.584C5.56512 508.261 2.89928 518.439 5.70218 525.342C10.0465 536.04 24.4995 536.084 34.0297 534.937C35.5126 534.759 35.5305 532.406 34.0297 532.587C25.9236 533.562 14.0798 534.156 8.87061 526.363C5.41508 521.194 6.44399 510.541 14.0512 509.935L13.2203 507.929C10.6428 510.447 6.4689 509.618 4.1168 507.157C0.946306 503.839 2.64297 498.844 5.75483 496.133C13.4699 489.41 24.0016 496.686 28.303 503.744C37.9474 519.569 30.5704 538.608 24.2469 554.122C23.8078 555.199 25.1643 555.794 25.9731 555.449C42.5885 548.368 60.0928 543.439 77.6876 539.481C98.6584 534.879 119.856 531.38 141.194 529C164.987 526.22 188.894 524.439 212.819 523.301C237.976 522.104 263.166 521.632 288.351 521.704C313.822 521.777 339.284 522.389 364.737 523.54C389.118 524.621 413.473 526.165 437.802 528.171C459.72 529.986 481.61 532.186 503.435 534.903C521.903 537.202 540.338 539.856 558.649 543.193C572.138 545.652 585.64 548.398 598.803 552.275C605.792 554.333 614.354 556.513 620.015 561.356C620.74 561.924 621.351 562.625 621.814 563.421C622.545 564.746 624.576 563.561 623.843 562.235Z" fill="#F2F2F2"/>
<path d="M353.179 162.222L401.63 189.956C403.686 191.125 406.119 191.438 408.404 190.829C410.689 190.219 412.643 188.735 413.844 186.697C414.466 185.643 414.866 184.473 415.021 183.259C415.175 182.046 415.081 180.813 414.744 179.637C414.406 178.46 413.833 177.365 413.059 176.417C412.284 175.47 411.325 174.69 410.24 174.125L359.028 146.86L328.609 128.98C328.821 127.379 328.535 125.752 327.789 124.319C327.044 122.887 325.876 121.718 324.444 120.973C323.012 120.227 321.385 119.941 319.784 120.152C318.184 120.363 316.687 121.063 315.497 122.154C314.308 123.246 313.483 124.678 313.135 126.255C312.787 127.832 312.934 129.478 313.554 130.969C314.174 132.46 315.238 133.724 316.601 134.589C317.964 135.454 319.561 135.879 321.174 135.805L353.179 162.222Z" fill="#FFB6B6"/>
<path d="M389.209 188.757C389.35 189.322 389.672 189.824 390.127 190.188C390.581 190.552 391.142 190.756 391.724 190.77C392.441 190.8 393.131 191.054 393.697 191.496C393.806 191.582 393.908 191.676 394.005 191.776C394.57 192.394 395.275 192.865 396.062 193.152C396.848 193.438 397.692 193.53 398.522 193.42C401.247 193.019 404.425 193.964 407.054 195.138C409.932 196.424 412.783 197.885 415.885 198.444C420.36 199.251 425.631 197.867 426.883 192.348C427.378 189.993 427.047 187.538 425.945 185.398C423.7 180.893 419.316 178.181 415.097 175.627L417.261 175.822C412.604 173.112 408.542 169.49 405.319 165.172C404.894 166.313 403.083 166.198 402.3 165.266C401.516 164.334 401.425 163.028 401.216 161.828C400.954 160.316 400.238 158.603 398.354 158.72C397.904 158.761 397.467 158.894 397.072 159.112C396.676 159.329 396.329 159.626 396.053 159.984C390.701 166.636 386.783 174.324 384.544 182.563C384.048 184.394 383.659 186.443 384.567 188.108C385.475 189.773 388.243 190.389 389.209 188.757Z" fill="#2F2E41"/>
<path d="M274.119 296.693C271.374 296.547 268.723 295.641 266.463 294.076C264.203 292.51 262.422 290.348 261.319 287.829C258.796 282.199 259.699 275.533 262.803 270.332C266.04 264.907 271.105 261.697 276.579 258.858C281.595 256.256 286.997 253.207 289.283 247.724C290.308 245.341 290.443 242.669 289.662 240.195C289.292 239.032 288.704 237.949 287.931 237.004C287.025 236.045 285.924 235.292 284.702 234.796C283.509 234.177 282.952 233.019 282.359 231.868C281.701 230.591 280.983 229.359 280.262 228.117C278.55 225.165 276.905 222.176 275.329 219.149C269.005 207.079 263.881 194.417 260.033 181.345C252.844 156.694 250.6 130.183 256.62 105.037C259.497 93.0181 264.195 81.2437 271.12 70.9668C277.501 61.4951 286.257 53.1247 297.218 49.34C307.754 45.7024 320.634 46.0566 329.657 53.2552C337.069 59.1678 341.424 69.5071 339.415 78.9203C338.929 81.203 338.059 83.3869 336.844 85.3794L338.992 86.285C344.231 72.188 361.802 66.8916 375.347 70.7473C391.904 75.4607 400.69 93.2458 401.449 109.377C402.381 129.169 391.961 147.415 379.699 162.168C367.074 177.249 352.309 190.4 335.874 201.203C319.527 212.028 301.721 220.47 282.993 226.272C280.674 226.987 278.344 227.66 276.001 228.292C275.71 228.383 275.466 228.584 275.32 228.851C275.174 229.119 275.138 229.433 275.219 229.727C275.3 230.021 275.492 230.272 275.755 230.427C276.017 230.582 276.33 230.629 276.626 230.559C296.333 225.212 315.148 216.999 332.468 206.183C349.826 195.387 365.485 182.075 378.936 166.681C392.009 151.648 403.628 133.14 403.857 112.581C404.046 95.6696 396.114 76.7199 379.678 69.7914C366.035 64.0401 347.573 67.7397 339.225 80.6049C338.209 82.1931 337.371 83.8884 336.725 85.6601C336.25 86.9397 338.202 87.6702 338.873 86.5657C344.191 77.8152 342.766 66.5013 337.265 58.1882C331.007 48.7305 319.947 44.2902 308.83 44.7501C283.02 45.8177 266.474 69.1348 258.32 91.2785C249.117 116.27 248.976 143.868 254.628 169.677C257.685 183.376 262.173 196.716 268.016 209.477C270.958 215.969 274.209 222.309 277.768 228.497C278.52 229.806 279.324 231.088 280.013 232.432C280.547 233.68 281.271 234.838 282.161 235.863C283.13 236.827 284.508 237.045 285.538 237.891C286.588 238.853 287.308 240.122 287.594 241.517C289.109 247.741 283.302 252.462 278.533 255.153C275.565 256.828 272.43 258.212 269.58 260.094C267.085 261.722 264.854 263.724 262.968 266.03C259.14 270.772 256.96 276.786 257.636 282.918C257.904 285.771 258.841 288.521 260.372 290.944C261.902 293.367 263.983 295.395 266.445 296.862C268.782 298.217 271.42 298.967 274.119 299.044C275.632 299.087 275.631 296.737 274.119 296.693Z" fill="#A4BCFD"/>
<path d="M168.867 280.376L179.834 221.613L214.302 218.479L236.929 282.424L168.867 280.376Z" fill="#A0616A"/>
<path d="M412.494 226.314L384.293 288.211L449.704 295.052L467.33 220.046L412.494 226.314Z" fill="#FFB6B6"/>
<path d="M512.485 470.156L506.726 476.586L478.639 456.935L487.137 447.446L512.485 470.156Z" fill="#FFB6B6"/>
<path d="M504.513 499.976C505.276 500.658 506.278 501.01 507.3 500.954C508.321 500.898 509.279 500.439 509.963 499.678L521.411 486.894L518.827 480.614L524.149 483.832L528.472 479.011L511.011 465.809L509.41 467.401L502.862 473.878L500.754 475.972L505.354 480.093L503.26 496.619C503.182 497.238 503.255 497.867 503.473 498.452C503.692 499.037 504.049 499.56 504.513 499.976Z" fill="#2F2E41"/>
<path d="M400.646 528.749L392.021 529.068L386.659 495.207L399.387 494.736L400.646 528.749Z" fill="#FFB6B6"/>
<path d="M373.654 543.715C373.693 544.738 374.136 545.703 374.885 546.4C375.635 547.096 376.63 547.467 377.652 547.43L394.8 546.794L397.524 540.574L398.904 546.639L405.374 546.403L402.75 524.669L400.493 524.622L391.286 524.406L388.316 524.342L388.545 530.515L375.2 540.482C374.7 540.856 374.298 541.345 374.029 541.908C373.76 542.471 373.631 543.091 373.654 543.715Z" fill="#2F2E41"/>
<path d="M451.681 283.077H386.834L366.275 328.169C366.275 328.169 350.455 404.618 359.225 423.756C367.842 442.56 384.293 509.158 384.293 509.158L401.527 505.24L405.444 493.488C405.444 493.488 398.83 482.494 400.744 478.601C402.657 474.709 396.043 474.684 396.043 474.684C396.043 474.684 396.147 472.103 396.827 464.498C397.506 456.893 390.56 409.653 390.56 409.653L414.061 336.004L451.681 283.077Z" fill="#2F2E41"/>
<path d="M400.608 298.056L414.061 336.004L406.269 399.77C406.016 401.84 406.287 403.94 407.058 405.877C407.828 407.814 409.074 409.526 410.679 410.856L482.997 470.766L499.448 451.962L494.145 447.447C494.145 447.447 485.525 444.639 487.786 442.033C490.048 439.426 482.187 437.265 482.187 437.265C482.187 437.265 480.904 442.716 476.075 432.061C471.247 421.406 442.194 403.212 442.194 403.212C442.194 403.212 482.214 318.767 451.681 283.077L400.608 298.056Z" fill="#2F2E41"/>
<path d="M109.611 459.971L115.37 466.4L143.458 446.75L134.958 437.261L109.611 459.971Z" fill="#A0616A"/>
<path d="M118.836 486.433L116.742 469.908L121.342 465.786L119.234 463.693L112.686 457.215L111.085 455.624L93.6245 468.825L97.9476 473.646L103.269 470.429L100.685 476.708L112.133 489.492C112.682 490.105 113.413 490.526 114.218 490.694C115.023 490.863 115.861 490.769 116.609 490.428C117.358 490.086 117.977 489.514 118.378 488.796C118.778 488.077 118.939 487.249 118.836 486.433Z" fill="#2F2E41"/>
<path d="M184.725 495.988L192.568 499.59L210.501 470.373L198.925 465.057L184.725 495.988Z" fill="#A0616A"/>
<path d="M203.729 516.583L195.224 502.26L197.802 496.647L195.034 495.567L186.448 492.236L184.345 491.414L173.591 510.481L179.476 513.18L183.075 508.108L183.207 514.897L198.801 522.06C199.548 522.403 200.386 522.498 201.191 522.331C201.997 522.165 202.728 521.745 203.278 521.134C203.828 520.522 204.169 519.751 204.25 518.932C204.331 518.113 204.149 517.29 203.729 516.583Z" fill="#2F2E41"/>
<path d="M170.415 272.892H235.262L255.821 317.983C255.821 317.983 277.755 398.684 262.871 413.571C247.987 428.457 207.252 479.385 207.252 479.385L193.151 473.9L231.536 399.468L208.035 325.818L170.415 272.892Z" fill="#2F2E41"/>
<path d="M221.488 287.87L208.035 325.818L215.827 389.585C216.08 391.654 215.809 393.754 215.038 395.691C214.268 397.628 213.022 399.341 211.417 400.671L142.232 448.828L132.048 437.076L179.902 393.027C179.902 393.027 139.882 308.581 170.415 272.892L221.488 287.87Z" fill="#2F2E41"/>
<path d="M456.363 267.056L399.177 252.169C399.177 252.169 401.295 233.383 397.886 234.158C394.477 234.932 397.492 228.663 397.492 228.663C397.492 228.663 399.96 226.314 397.079 222.899C387.224 211.219 395.167 196.211 395.167 196.211C395.413 188.825 398.24 181.76 403.157 176.243C408.073 170.726 414.768 167.108 422.076 166.018L443.315 162.85C447.731 162.85 452.095 163.807 456.106 165.656C460.117 167.505 463.68 170.201 466.549 173.56C469.418 176.918 471.526 180.858 472.726 185.109C473.926 189.36 474.191 193.821 473.502 198.184L456.363 267.056Z" fill="#2F2E41"/>
<path d="M446.962 169.902L414.844 170.685L417.978 155.799H441.479L446.962 169.902Z" fill="#2F2E41"/>
<path d="M494.509 240.722L457.821 198.638C456.272 196.851 455.488 194.526 455.638 192.165C455.788 189.804 456.86 187.597 458.622 186.02C459.534 185.204 460.602 184.582 461.762 184.193C462.922 183.803 464.149 183.654 465.368 183.754C466.588 183.854 467.774 184.202 468.855 184.776C469.936 185.349 470.888 186.137 471.655 187.091L508.424 231.974L531.916 258.304C533.444 257.783 535.096 257.744 536.646 258.194C538.197 258.644 539.571 259.561 540.583 260.819C541.595 262.078 542.195 263.617 542.301 265.229C542.408 266.84 542.015 268.445 541.178 269.826C540.341 271.207 539.099 272.296 537.621 272.946C536.143 273.596 534.501 273.776 532.917 273.46C531.334 273.144 529.886 272.348 528.77 271.18C527.655 270.013 526.926 268.53 526.682 266.934L494.509 240.722Z" fill="#FFB6B6"/>
<path d="M461.431 210.586C460.85 210.558 460.294 210.34 459.848 209.966C459.403 209.591 459.093 209.081 458.965 208.513C458.795 207.816 458.411 207.189 457.867 206.72C457.76 206.631 457.648 206.548 457.531 206.474C456.815 206.04 456.214 205.441 455.78 204.726C455.345 204.01 455.089 203.201 455.034 202.366C454.893 199.614 453.344 196.683 451.677 194.334C449.853 191.763 447.862 189.253 446.705 186.321C445.037 182.09 445.361 176.649 450.526 174.34C452.739 173.392 455.21 173.235 457.524 173.897C462.381 175.216 465.899 178.985 469.231 182.622L468.615 180.537C472.184 184.574 476.532 187.847 481.397 190.162C480.362 190.803 480.83 192.556 481.897 193.142C482.964 193.728 484.263 193.562 485.48 193.531C487.014 193.492 488.834 193.858 489.088 195.729C489.136 196.178 489.091 196.633 488.956 197.063C488.82 197.494 488.597 197.893 488.3 198.233C482.827 204.786 476.058 210.136 468.418 213.947C466.721 214.792 464.787 215.575 462.977 215.011C461.167 214.447 460.02 211.853 461.431 210.586Z" fill="#2F2E41"/>
<path d="M406.05 126.671C413.2 138.991 399.736 159.749 413.305 164.06L412.187 162.941C403.997 152.865 421.116 131.537 412.926 121.46C411.653 119.982 410.561 118.358 409.671 116.622L406.05 126.671Z" fill="#2F2E41"/>
<path d="M461.84 124.803C461.841 128.796 460.863 132.728 458.99 136.254C457.118 139.78 454.409 142.793 451.1 145.027C447.792 147.261 443.986 148.649 440.016 149.069C436.046 149.489 432.034 148.927 428.332 147.434C424.629 145.941 421.35 143.561 418.782 140.505C416.214 137.448 414.435 133.807 413.602 129.903C412.769 125.998 412.907 121.948 414.004 118.109C415.101 114.271 417.123 110.76 419.893 107.885L420.01 107.768C420.205 107.563 420.4 107.358 420.605 107.163L420.609 107.162L420.612 107.16L420.614 107.157L420.615 107.153C420.869 106.919 421.122 106.685 421.386 106.46C424.91 103.37 429.25 101.362 433.886 100.675C438.521 99.9876 443.257 100.652 447.526 102.587C451.794 104.522 455.414 107.647 457.953 111.587C460.492 115.527 461.841 120.116 461.84 124.803Z" fill="#2F2E41"/>
<path d="M431.444 150.9C442.738 150.9 451.894 141.743 451.894 130.447C451.894 119.15 442.738 109.993 431.444 109.993C420.149 109.993 410.994 119.15 410.994 130.447C410.994 141.743 420.149 150.9 431.444 150.9Z" fill="#FFB8B8"/>
<path d="M446.054 110.781C442.887 107.816 438.947 105.804 434.688 104.977C430.429 104.15 426.023 104.541 421.976 106.105C421.872 106.152 421.756 106.198 421.652 106.244C421.249 106.406 420.845 106.59 420.441 106.786L420.21 106.89V106.925L420.071 107.029C419.976 107.116 419.861 107.179 419.736 107.214C417.96 107.166 416.193 107.495 414.552 108.177C412.911 108.859 411.433 109.88 410.214 111.174C407.051 114.614 405.55 120.179 406.012 126.828L406.023 127.036L406.208 127.152C406.266 127.186 406.312 127.221 406.37 127.256C407.986 128.26 409.521 129.149 411.01 129.934C411.91 130.419 412.788 130.858 413.665 131.262L413.976 131.4C414.311 131.562 414.657 131.712 414.992 131.862C423.442 135.556 431.233 136.134 438.713 133.651L438.851 133.605L441.368 129.391L442.164 128.064C442.337 129.01 442.441 130.5 442.557 132.208C442.687 134.876 442.984 137.532 443.445 140.163V140.186C443.907 142.518 444.623 144.4 445.8 145.023C445.976 145.135 446.172 145.209 446.377 145.242L448.247 142.772L453.165 136.284L453.245 135.903C455.242 126.886 452.357 116.796 446.054 110.781Z" fill="#2F2E41"/>
<path d="M504.148 71.9636C500.004 66.4683 496.204 50.9522 490.121 47.7428C489.509 47.4195 488.898 47.1193 488.274 46.8422C488.884 48.2964 489.001 49.9099 488.609 51.4371C488.067 53.3074 486.681 54.7967 485.331 56.2051C481.579 60.1419 477.824 64.0749 474.065 68.004C476.591 64.657 478.388 60.8172 479.338 56.7327C480.289 52.6481 480.372 48.4096 479.583 44.2908C476.447 43.8227 473.254 43.9165 470.152 44.5679C463.434 46.0226 457.27 50.5712 454.604 56.9094C452.33 62.2662 452.653 68.3503 453.38 74.1228C454.107 79.8952 455.227 85.7369 454.419 91.4978C453.623 97.2702 450.448 103.123 445.035 105.271C446.235 104.543 446.154 102.592 445.15 101.623C444.332 100.92 443.272 100.564 442.195 100.63C441.859 100.627 441.523 100.654 441.191 100.711C436.885 101.392 433.734 104.994 430.987 108.388C430.292 108.485 429.638 108.772 429.094 109.215C428.551 109.659 428.14 110.243 427.905 110.905C427.645 111.601 427.645 112.367 427.905 113.064C428.817 115.35 432.488 115.788 433.907 113.779C433.503 115.424 433.457 117.136 433.774 118.799C434.09 120.463 434.762 122.038 435.742 123.419C436.723 124.799 437.989 125.952 439.455 126.799C440.921 127.646 442.553 128.167 444.238 128.326C449.213 128.799 457.12 129.55 460.41 125.775C465.546 119.864 473.43 113.941 474.261 106.148C475.081 98.367 479.386 99.914 481.187 92.2944C482.988 84.6632 490.387 82.031 497.347 78.4405C505.127 74.4229 497.003 66.8839 504.148 71.9636Z" fill="#2F2E41"/>
<path d="M441.213 129.125C448.363 141.444 434.899 162.203 448.469 166.513L447.351 165.395C439.16 155.318 456.28 133.991 448.089 123.914C446.816 122.436 445.724 120.812 444.835 119.076L441.213 129.125Z" fill="#2F2E41"/>
<path d="M452.29 135.711C452.29 135.711 446.232 113.095 420.264 107.875C420.235 107.865 420.137 107.826 420.01 107.768C419.932 107.719 419.835 107.67 419.737 107.622C420.03 107.456 420.313 107.309 420.605 107.163L420.609 107.162L420.612 107.16L420.614 107.157L420.615 107.153C420.869 106.919 421.122 106.685 421.386 106.46L422.127 106.49C422.127 106.49 448.183 102.363 452.29 135.711Z" fill="#FD6584"/>
<path d="M225.351 237.985L202.179 181.519C201.204 179.124 201.21 176.442 202.195 174.051C203.181 171.66 205.066 169.753 207.445 168.74C208.676 168.216 210.001 167.949 211.338 167.954C212.676 167.958 213.998 168.236 215.225 168.768C216.452 169.301 217.558 170.078 218.474 171.052C219.391 172.026 220.1 173.177 220.558 174.434L242.831 233.826L257.886 269.345C259.651 269.343 261.374 269.884 262.821 270.895C264.267 271.907 265.368 273.339 265.972 274.997C266.577 276.656 266.656 278.461 266.2 280.166C265.743 281.871 264.773 283.395 263.421 284.529C262.068 285.664 260.4 286.354 258.641 286.507C256.883 286.66 255.12 286.268 253.592 285.384C252.064 284.5 250.846 283.167 250.102 281.566C249.358 279.965 249.124 278.174 249.434 276.436L225.351 237.985Z" fill="#A0616A"/>
<path d="M201.713 195.155C201.121 194.922 200.622 194.501 200.293 193.957C199.963 193.413 199.821 192.775 199.889 192.143C199.958 191.361 199.781 190.577 199.383 189.9C199.304 189.77 199.217 189.646 199.122 189.527C198.534 188.827 198.123 187.995 197.924 187.102C197.726 186.208 197.746 185.281 197.983 184.397C198.804 181.5 198.232 177.92 197.333 174.902C196.348 171.6 195.17 168.301 195.005 164.859C194.766 159.894 197.015 154.375 203.173 153.803C205.797 153.6 208.41 154.307 210.572 155.806C215.135 158.88 217.452 164.018 219.621 168.955L219.716 166.581C221.991 172.015 225.34 176.933 229.562 181.041C228.265 181.339 228.133 183.319 229.031 184.301C229.929 185.283 231.333 185.567 232.603 185.964C234.204 186.463 235.959 187.483 235.564 189.508C235.456 189.99 235.25 190.445 234.958 190.843C234.666 191.241 234.295 191.575 233.868 191.823C225.898 196.68 217.01 199.836 207.762 201.092C205.708 201.37 203.432 201.501 201.757 200.28C200.081 199.059 199.807 195.97 201.713 195.155Z" fill="#E6E6E6"/>
<path d="M226.052 251.386L174.201 252.037C174.201 252.037 168.386 251.781 168.386 248.267C168.386 244.754 171.636 244.018 167.377 241.311C163.117 238.605 161.36 240.361 162.238 235.969C163.117 231.577 163.995 230.125 163.995 229.094C163.995 228.064 163.117 223.672 163.117 219.28C163.117 217.151 169.956 213.284 168.255 200.807C166.182 185.604 166.909 162.339 181.56 157.791L192.099 139.345H212.188L218.447 157.791L225.865 167.515C225.865 167.515 240.498 186.022 236.107 195.685C231.716 205.347 226.052 251.386 226.052 251.386Z" fill="#E6E6E6"/>
<path d="M272.55 163.875L213.918 180.807C211.432 181.517 208.766 181.221 206.497 179.983C204.227 178.744 202.535 176.663 201.786 174.188C201.398 172.908 201.275 171.562 201.425 170.232C201.575 168.903 201.993 167.618 202.656 166.456C203.318 165.293 204.21 164.278 205.277 163.472C206.345 162.666 207.565 162.085 208.864 161.766L270.307 146.045L307.24 134.919C307.429 133.163 308.153 131.509 309.315 130.18C310.476 128.851 312.019 127.911 313.733 127.49C315.447 127.068 317.249 127.184 318.895 127.823C320.54 128.461 321.95 129.591 322.931 131.058C323.912 132.525 324.418 134.259 324.38 136.024C324.342 137.789 323.761 139.5 322.717 140.923C321.673 142.347 320.217 143.414 318.545 143.981C316.873 144.547 315.068 144.585 313.373 144.09L272.55 163.875Z" fill="#A0616A"/>
<path d="M227.421 182.745C227.125 183.309 226.653 183.759 226.076 184.028C225.5 184.296 224.851 184.368 224.23 184.233C223.46 184.08 222.661 184.171 221.946 184.494C221.808 184.558 221.675 184.631 221.547 184.712C220.787 185.222 219.915 185.541 219.006 185.641C218.097 185.742 217.177 185.621 216.324 185.29C213.533 184.16 209.913 184.341 206.816 184.909C203.427 185.531 200.021 186.346 196.582 186.138C191.621 185.838 186.379 183.005 186.476 176.819C186.558 174.189 187.544 171.667 189.268 169.679C192.817 165.475 198.175 163.728 203.317 162.105L200.967 161.753C206.614 160.079 211.865 157.281 216.404 153.528C216.561 154.85 218.514 155.196 219.588 154.409C220.661 153.622 221.095 152.257 221.627 151.037C222.297 149.499 223.5 147.864 225.471 148.476C225.938 148.635 226.367 148.89 226.731 149.223C227.096 149.557 227.387 149.962 227.587 150.413C231.553 158.863 233.728 168.042 233.977 177.373C234.031 179.445 233.914 181.723 232.519 183.256C231.125 184.79 228.025 184.728 227.421 182.745Z" fill="#E6E6E6"/>
<path d="M198.641 142.654C211.576 142.654 222.062 132.166 222.062 119.229C222.062 106.292 211.576 95.8042 198.641 95.8042C185.706 95.8042 175.22 106.292 175.22 119.229C175.22 132.166 185.706 142.654 198.641 142.654Z" fill="#A0616A"/>
<path d="M180.544 101.911C180.785 99.8031 182.229 97.1975 183.234 95.3288C184.239 93.46 186.18 91.9339 188.297 92.0641C189.162 92.1644 189.991 92.4725 190.711 92.9622C191.431 93.4519 192.023 94.1086 192.434 94.8763C193.243 96.4219 193.683 98.1334 193.721 99.8772C193.943 103.768 193.293 107.659 191.82 111.267C190.347 114.875 188.087 118.109 185.206 120.732C183.565 122.205 181.589 123.515 179.385 123.565C178.384 123.541 177.398 123.317 176.484 122.906C175.571 122.496 174.749 121.906 174.067 121.173C170.499 117.599 169.959 111.723 171.865 107.046C173.771 102.369 174.621 100.549 178.977 97.9937" fill="#2F2E41"/>
<path d="M213.445 135.602C213.054 137.686 216.657 147.597 215.506 149.384C215.506 149.384 203.582 153.526 199.022 153.824C193.453 154.184 188.973 151.899 183.763 148.459C183.669 146.593 183.129 144.777 182.189 143.163C182.268 144.413 182.014 145.662 181.452 146.782C173.822 140.702 170.958 123.983 178.502 116.219L186.336 98.1981C183.986 98.9816 191.08 86.8758 198.561 95.6432C207.923 86.108 226.057 99.8349 228.329 112.097C226.143 109.329 225.004 109.655 224.444 111.564C223.799 109.959 222.778 108.532 221.467 107.404C222.119 108.693 222.452 110.119 222.438 111.564C207.672 112.481 210.42 122.444 222.523 137.37C218.048 134.583 221.068 146.592 218.678 149.462C218.561 147.456 213.868 137.553 213.445 135.602Z" fill="#2F2E41"/>
<path d="M192.136 116.411C191.947 116.411 191.764 116.343 191.622 116.219C191.479 116.095 191.387 115.923 191.361 115.736C191.334 115.549 191.377 115.358 191.48 115.2C191.583 115.042 191.74 114.926 191.922 114.874C192.127 114.535 192.043 113.109 191.975 111.956C191.721 107.628 191.294 100.385 198.325 95.4949C198.41 95.4358 198.505 95.3939 198.606 95.3717C198.706 95.3495 198.81 95.3474 198.912 95.3655C199.013 95.3835 199.11 95.4214 199.197 95.477C199.284 95.5326 199.359 95.6048 199.417 95.6894C199.476 95.774 199.518 95.8694 199.54 95.9701C199.562 96.0708 199.563 96.1749 199.545 96.2763C199.527 96.3777 199.488 96.4745 199.433 96.5611C199.377 96.6477 199.304 96.7225 199.22 96.7811C192.91 101.17 193.288 107.606 193.539 111.864C193.682 114.299 193.786 116.057 192.31 116.392C192.253 116.405 192.194 116.412 192.136 116.411Z" fill="#A4BCFD"/>
<path d="M192.501 109.671C187.72 111.655 182.627 112.784 177.455 113.006C173.353 113.18 168.458 112.265 166.791 108.512C165.779 106.235 166.318 103.567 167.243 101.254C168.169 98.941 169.468 96.7556 170.003 94.3226C171.158 89.0813 168.433 83.5267 164.251 80.1633C160.07 76.7999 154.673 75.3157 149.35 74.6409C153.349 73.1567 157.41 71.6584 161.661 71.3024C165.912 70.9464 170.453 71.8707 173.627 74.7215C177.062 77.8065 178.381 82.5981 178.966 87.1782C179.55 91.7584 179.58 96.4755 181.132 100.824C182.685 105.172 186.25 109.222 190.851 109.608" fill="#2F2E41"/>
<path d="M555.363 454.916C555.536 453.44 555.417 451.944 555.012 450.514C554.607 449.083 553.925 447.747 553.004 446.58C552.082 445.414 550.94 444.44 549.643 443.715C548.346 442.99 546.918 442.528 545.442 442.355C545.414 442.351 545.387 442.35 545.359 442.347L545.359 442.345L545.357 442.346L545.367 442.264L545.282 442.254C545.453 440.722 545.309 439.171 544.86 437.697C544.41 436.223 543.664 434.856 542.667 433.68C541.671 432.504 540.445 431.544 539.064 430.86C537.683 430.175 536.177 429.779 534.638 429.697C533.099 429.615 531.56 429.848 530.114 430.382C528.669 430.916 527.347 431.74 526.231 432.803C525.115 433.866 524.228 435.146 523.624 436.564C523.02 437.982 522.712 439.509 522.719 441.05L520.248 462.109L520.331 462.118L520.333 462.117L541.47 464.598C543.026 464.976 544.644 465.019 546.218 464.725C547.791 464.43 549.284 463.804 550.598 462.889C551.911 461.973 553.016 460.789 553.837 459.415C554.658 458.04 555.179 456.507 555.363 454.916Z" fill="#F2F2F2"/>
<path d="M87.2056 415.624C85.7197 415.591 84.242 415.852 82.857 416.391C81.4719 416.93 80.2065 417.737 79.1331 418.765C78.0597 419.793 77.1992 421.022 76.6009 422.383C76.0026 423.744 75.678 425.209 75.6459 426.695C75.6453 426.723 75.6466 426.751 75.6462 426.778L75.6441 426.778L75.6458 426.78L75.5626 426.778L75.5608 426.864C74.0198 426.839 72.4901 427.13 71.0654 427.718C69.6407 428.305 68.351 429.178 67.2755 430.282C66.2 431.386 65.3613 432.698 64.8109 434.138C64.2604 435.578 64.0098 437.115 64.0744 438.655C64.139 440.195 64.5174 441.706 65.1865 443.094C65.8555 444.483 66.8012 445.72 67.9653 446.73C69.1295 447.74 70.4876 448.502 71.9566 448.968C73.4255 449.435 74.9742 449.596 76.5077 449.443L97.702 449.902L97.7038 449.818L97.702 449.817L98.1628 428.535C98.3911 426.951 98.2801 425.335 97.8371 423.797C97.3941 422.258 96.6293 420.831 95.5933 419.61C94.5573 418.389 93.2738 417.402 91.8278 416.715C90.3818 416.028 88.8062 415.656 87.2056 415.624Z" fill="#F2F2F2"/>
</g>
<defs>
<radialGradient id="paint0_radial_306_101" cx="0" cy="0" r="1" gradientUnits="userSpaceOnUse" gradientTransform="translate(312 303) rotate(90) scale(303)">
<stop stop-color="#444CE7" stop-opacity="0.81"/>
<stop offset="1" stop-color="#444CE7" stop-opacity="0.29"/>
</radialGradient>
<linearGradient id="paint1_linear_306_101" x1="184.047" y1="1.87602e-06" x2="369.757" y2="597.559" gradientUnits="userSpaceOnUse">
<stop stop-color="#444CE7" stop-opacity="0.81"/>
<stop offset="1" stop-opacity="0"/>
</linearGradient>
<radialGradient id="paint2_radial_306_101" cx="0" cy="0" r="1" gradientUnits="userSpaceOnUse" gradientTransform="translate(312 302) rotate(90) scale(264)">
<stop stop-color="#444CE7" stop-opacity="0.81"/>
<stop offset="1" stop-color="#444CE7" stop-opacity="0.29"/>
</radialGradient>
<linearGradient id="paint3_linear_306_101" x1="312" y1="38" x2="365.333" y2="536.667" gradientUnits="userSpaceOnUse">
<stop stop-color="#A4BCFD"/>
<stop offset="1" stop-color="#444CE7" stop-opacity="0.81"/>
</linearGradient>
<clipPath id="clip0_306_101">
<rect width="624" height="520" fill="white" transform="translate(0 44)"/>
</clipPath>
</defs>
</svg>
