<svg width="643" height="775" viewBox="0 0 643 775" fill="none" xmlns="http://www.w3.org/2000/svg">
<circle cx="322" cy="303" r="303" fill="url(#paint0_radial_5_197)" fill-opacity="0.2"/>
<circle cx="322" cy="303" r="303" fill="url(#paint1_linear_5_197)" fill-opacity="0.2"/>
<circle cx="322" cy="302" r="264" fill="url(#paint2_radial_5_197)" fill-opacity="0.2"/>
<circle cx="322" cy="302" r="264" fill="url(#paint3_linear_5_197)" fill-opacity="0.2"/>
<path d="M395.594 158.789H367.181V401.327C367.181 405.133 366.432 408.901 364.978 412.417C363.523 415.932 361.391 419.127 358.704 421.817C356.017 424.508 352.826 426.643 349.315 428.099C345.803 429.555 342.04 430.305 338.239 430.305H121.011V430.582C121.011 434.387 121.76 438.155 123.214 441.671C124.669 445.187 126.801 448.381 129.488 451.072C132.175 453.763 135.366 455.897 138.877 457.353C142.389 458.81 146.152 459.559 149.953 459.559H395.593C399.394 459.559 403.158 458.81 406.669 457.353C410.18 455.897 413.371 453.763 416.058 451.072C418.745 448.381 420.877 445.187 422.332 441.671C423.786 438.155 424.535 434.387 424.535 430.582V187.767C424.535 180.081 421.486 172.711 416.058 167.277C410.63 161.842 403.269 158.789 395.594 158.789Z" fill="#F2F2F2"/>
<path d="M315.501 125.797C316.212 126.877 317.15 127.79 318.249 128.471C319.348 129.153 320.581 129.587 321.864 129.744C323.147 129.901 324.449 129.778 325.679 129.382C326.909 128.986 328.039 128.327 328.99 127.451L369.533 145.765L377.35 135.782L329.038 114.383C327.445 112.889 325.362 112.033 323.181 111.975C321 111.918 318.874 112.663 317.205 114.07C315.537 115.477 314.442 117.448 314.127 119.609C313.813 121.771 314.302 123.973 315.501 125.797Z" fill="#A0616A"/>
<path d="M489.493 137.217L493.514 160.032C493.701 161.096 493.665 162.188 493.406 163.237C493.147 164.287 492.672 165.27 492.011 166.125C491.35 166.979 490.518 167.686 489.569 168.2C488.619 168.714 487.572 169.023 486.496 169.107L418.17 174.487L337.857 138.498L347.449 120.266L417.169 142.371L489.493 137.217Z" fill="#A4BCFD"/>
<path d="M329.582 120.867H83.9412C67.9574 120.867 55 133.84 55 149.844V392.659C55 408.663 67.9574 421.637 83.9412 421.637H329.582C345.566 421.637 358.523 408.663 358.523 392.659V149.844C358.523 133.84 345.566 120.867 329.582 120.867Z" fill="#F2F2F2"/>
<path d="M83.9414 126.826C80.9224 126.826 77.9329 127.421 75.1437 128.578C72.3545 129.735 69.8202 131.43 67.6855 133.568C65.5507 135.705 63.8573 138.243 62.702 141.035C61.5466 143.828 60.952 146.821 60.952 149.844V392.66C60.952 398.764 63.3741 404.619 67.6855 408.936C71.9968 413.252 77.8443 415.678 83.9414 415.678H240.715C255.405 415.678 269.95 412.781 283.521 407.152C297.092 401.524 309.423 393.275 319.81 382.875C330.196 372.475 338.436 360.129 344.057 346.541C349.678 332.953 352.571 318.39 352.571 303.682V149.844C352.571 146.821 351.977 143.828 350.821 141.035C349.666 138.243 347.973 135.705 345.838 133.568C343.703 131.43 341.169 129.735 338.38 128.578C335.59 127.421 332.601 126.826 329.582 126.826H83.9414Z" fill="white"/>
<path d="M275.43 200.516H137.557C136.291 200.516 135.078 200.013 134.184 199.117C133.289 198.222 132.786 197.007 132.786 195.74C132.786 194.474 133.289 193.259 134.184 192.363C135.078 191.467 136.291 190.964 137.557 190.964H275.43C276.695 190.964 277.908 191.467 278.803 192.363C279.697 193.259 280.2 194.474 280.2 195.74C280.2 197.007 279.697 198.222 278.803 199.117C277.908 200.013 276.695 200.516 275.43 200.516Z" fill="#F2F2F2"/>
<path d="M275.43 302.366H137.557C136.291 302.366 135.078 301.862 134.184 300.967C133.289 300.071 132.786 298.856 132.786 297.589C132.786 296.323 133.289 295.108 134.184 294.212C135.078 293.317 136.291 292.813 137.557 292.813H275.43C276.695 292.813 277.908 293.317 278.803 294.212C279.697 295.108 280.2 296.323 280.2 297.589C280.2 298.856 279.697 300.071 278.803 300.967C277.908 301.862 276.695 302.366 275.43 302.366Z" fill="#F2F2F2"/>
<path d="M331.417 251.474H81.5692C80.3041 251.474 79.0908 250.971 78.1962 250.075C77.3016 249.18 76.7991 247.965 76.7991 246.698C76.7991 245.431 77.3016 244.217 78.1962 243.321C79.0908 242.425 80.3041 241.922 81.5692 241.922H331.417C332.682 241.922 333.895 242.425 334.79 243.321C335.685 244.217 336.187 245.431 336.187 246.698C336.187 247.965 335.685 249.18 334.79 250.075C333.895 250.971 332.682 251.474 331.417 251.474Z" fill="#F2F2F2"/>
<path d="M480.86 237.775L455.971 290.866L551.717 281.157L531.73 230.19L480.86 237.775Z" fill="#A0616A"/>
<path d="M503.12 542.925L494.042 542.848L490.024 506.972L503.421 507.086L503.12 542.925Z" fill="#A0616A"/>
<path d="M474.043 557.378C474.035 558.455 474.454 559.492 475.208 560.26C475.962 561.029 476.99 561.466 478.066 561.477L496.115 561.628L499.275 555.215L500.435 561.66L507.246 561.722L505.526 538.734L503.157 538.576L493.492 537.909L490.374 537.7L490.32 544.204L475.821 554.05C475.278 554.42 474.832 554.915 474.523 555.495C474.213 556.074 474.048 556.72 474.043 557.378Z" fill="#2F2E41"/>
<path d="M402.659 542.966L394.004 540.221L400.69 504.747L413.464 508.796L402.659 542.966Z" fill="#A0616A"/>
<path d="M370.623 548.227C370.299 549.254 370.396 550.369 370.891 551.325C371.387 552.282 372.241 553.002 373.267 553.329L390.475 558.783L395.377 553.582L394.595 560.085L401.086 562.147L406.188 539.668L403.97 538.82L394.928 535.339L392.009 534.222L390.048 540.423L373.3 545.57C372.672 545.763 372.101 546.105 371.635 546.568C371.168 547.031 370.821 547.6 370.623 548.227Z" fill="#2F2E41"/>
<path d="M547.356 266.227L460.3 282.198C460.3 282.198 446.336 292.656 450.072 296.402C453.807 300.147 454.386 299.567 451.932 302.024C449.478 304.481 444.172 307.766 444.12 309.916C444.068 312.066 405.11 408.497 405.11 408.497C405.11 408.497 409.439 406.33 406.192 409.581C402.946 412.831 402.946 415.517 402.946 415.517L387.796 517.931L412.4 519.381L436.493 426.012L490.231 338.786C490.231 338.786 495.564 416.57 495.787 421.743C496.011 426.917 499.257 420.416 496.011 426.917C492.764 433.418 490.6 429.084 492.764 433.418C494.929 437.752 484.968 525.986 484.968 525.986H507.426L555.592 343.101C555.592 343.101 572.729 290.816 547.356 266.227Z" fill="#2F2E41"/>
<path d="M521.71 119.941L486.838 116.313L477.803 128.058L467.278 133.67C462.824 136.046 459.147 139.655 456.688 144.067C454.229 148.48 453.091 153.508 453.41 158.55L465.711 230.19C465.711 230.19 455.321 253.615 462.464 259.445C469.607 265.275 456.941 279.714 472.204 272.447C487.466 265.18 553.365 273.53 553.365 273.53L539.297 233.441L549.806 194.047L550.963 161.016C551.179 154.844 549.35 148.774 545.76 143.751C542.17 138.729 537.021 135.036 531.117 133.25L529.647 132.805L521.71 119.941Z" fill="#A4BCFD"/>
<path d="M569.719 93.174C569.948 103.015 566.274 112.545 560.997 120.915C559.429 116.029 556.611 111.581 553.671 107.342C555.153 116.513 553.574 125.917 549.18 134.1C549.025 134.211 548.865 134.314 548.699 134.408C544.398 136.999 538.944 138.048 534.291 136.177C543.905 125.801 545.129 108.609 537.069 96.97C534.787 93.6674 531.835 90.7466 530.422 86.9883C528.19 80.9916 530.335 74.3891 531.689 68.137C532.954 62.3181 533.176 55.3936 529.277 51.1292C529.693 50.5332 530.26 50.0588 530.92 49.7546C531.58 49.4504 532.309 49.3274 533.032 49.398C535.436 49.738 537.186 51.8301 538.3 53.9848C539.414 56.1395 540.149 58.5276 541.703 60.3887C544.579 63.8721 549.477 64.6957 553.605 66.5316C563.601 70.9898 569.48 82.2231 569.719 93.174Z" fill="#2F2E41"/>
<path d="M571.877 321.27C577.256 321.27 581.617 316.904 581.617 311.519C581.617 306.133 577.256 301.767 571.877 301.767C566.498 301.767 562.138 306.133 562.138 311.519C562.138 316.904 566.498 321.27 571.877 321.27Z" fill="#A4BCFD"/>
<path d="M485.573 87.547C486.145 85.5452 482.207 97.7822 484.107 98.0031C492.761 98.9971 504.64 104.172 510.667 106.586C510.938 106.554 511.21 106.523 511.473 106.483C512.12 106.412 512.751 106.31 513.373 106.191C527.407 103.533 532.804 81.9478 532.804 81.7506C532.804 80.7802 530.478 54.1289 526.814 53.7345C525.852 53.6299 524.884 53.5772 523.916 53.5767H514.824C512.942 53.1707 511.035 52.894 509.116 52.7483H509.1C490.795 51.3519 476.362 62.5229 477.711 76.1158C477.719 76.1315 477.735 76.1473 477.743 76.1631C478.134 76.7469 478.477 77.2992 478.78 77.8277C479.076 78.3247 479.323 78.7981 479.539 79.2477C481.207 82.719 476.918 87.0868 479.762 87.9021C483.545 88.9864 469.815 124.626 484.785 124.626C477.503 126.699 483.998 93.0694 485.573 87.547Z" fill="#2F2E41"/>
<path d="M501.914 108.459C513.804 108.459 523.442 98.8084 523.442 86.9041C523.442 74.9997 513.804 65.3493 501.914 65.3493C490.025 65.3493 480.386 74.9997 480.386 86.9041C480.386 98.8084 490.025 108.459 501.914 108.459Z" fill="#A0616A"/>
<path d="M477.711 77.2912C478.07 77.4805 478.421 77.6541 478.78 77.8277C479.156 78.0091 479.531 78.1906 479.906 78.3562C487.115 81.6302 492.982 81.9931 496.543 77.2912C496.638 74.8172 497.193 72.3826 498.179 70.1121C498.005 72.6494 498.673 75.1732 500.079 77.2912H507.248C514.632 82.1982 518.424 82.711 513.299 98.8205C511.87 103.309 506.188 129.43 508.423 133.304C509.07 133.233 515.949 104.622 516.572 104.504C530.606 101.845 539.523 78.6954 538.381 77.3859C538.387 73.6618 537.532 69.9869 535.883 66.6488C533.796 62.4197 530.544 58.8772 526.511 56.4403C524.106 55.2731 521.6 54.3303 519.022 53.6239C518.959 53.6081 518.903 53.5923 518.839 53.5766C518.049 53.3636 517.242 53.1663 516.436 53.0007C514.77 52.6485 513.086 52.393 511.391 52.2354C511.271 52.2275 511.151 52.2196 511.04 52.2196C510.363 52.2212 509.699 52.4037 509.116 52.7482C509.108 52.7482 509.108 52.7561 509.1 52.7561C508.683 52.9998 508.32 53.3243 508.03 53.7107C507.52 54.3607 507.244 55.1641 507.248 55.9906H499.265C498.969 55.9906 498.674 55.9985 498.379 56.0143C493.051 56.1966 487.982 58.363 484.166 62.0896C480.349 65.8162 478.059 70.8347 477.743 76.1631C477.719 76.5417 477.711 76.9125 477.711 77.2912Z" fill="#2F2E41"/>
<path d="M524.78 70.4007C532.613 70.4007 538.963 64.043 538.963 56.2004C538.963 48.3577 532.613 42 524.78 42C516.947 42 510.598 48.3577 510.598 56.2004C510.598 64.043 516.947 70.4007 524.78 70.4007Z" fill="#2F2E41"/>
<path d="M571.987 315.54C572.679 314.447 573.126 313.217 573.296 311.934C573.467 310.651 573.357 309.347 572.974 308.11C572.592 306.874 571.946 305.736 571.081 304.775C570.216 303.813 569.153 303.051 567.965 302.542L568.035 258.008L555.737 254.96L556.04 307.854C555.332 309.92 555.406 312.174 556.247 314.19C557.088 316.205 558.638 317.841 560.604 318.789C562.569 319.736 564.814 319.929 566.912 319.33C569.01 318.731 570.815 317.382 571.987 315.54Z" fill="#A0616A"/>
<path d="M511.088 151.951L530.225 138.929C531.118 138.321 532.127 137.907 533.189 137.714C534.251 137.52 535.342 137.551 536.391 137.804C537.441 138.057 538.426 138.528 539.283 139.185C540.14 139.842 540.851 140.671 541.369 141.619L574.27 201.817L574.396 289.917L553.855 288.628L545.422 215.893L511.088 151.951Z" fill="#A4BCFD"/>
<path d="M364.112 351.749H159.585C155.137 351.749 150.87 353.518 147.725 356.668C144.579 359.817 142.812 364.089 142.812 368.543C142.812 372.997 144.579 377.269 147.725 380.419C150.87 383.568 155.137 385.337 159.585 385.337H364.112C368.561 385.337 372.827 383.568 375.973 380.419C379.118 377.269 380.885 372.997 380.885 368.543C380.885 364.089 379.118 359.817 375.973 356.668C372.827 353.518 368.561 351.749 364.112 351.749Z" fill="white"/>
<path d="M364.112 386.421H159.585C154.85 386.421 150.308 384.537 146.959 381.185C143.611 377.832 141.73 373.285 141.73 368.543C141.73 363.802 143.611 359.254 146.959 355.902C150.308 352.549 154.85 350.665 159.585 350.665H364.112C368.848 350.665 373.389 352.549 376.738 355.902C380.086 359.254 381.967 363.802 381.967 368.543C381.967 373.285 380.086 377.832 376.738 381.185C373.389 384.537 368.848 386.421 364.112 386.421ZM159.585 352.832C155.424 352.832 151.433 354.488 148.49 357.434C145.547 360.38 143.894 364.376 143.894 368.543C143.894 372.71 145.547 376.706 148.49 379.652C151.433 382.599 155.424 384.254 159.585 384.254H364.112C368.274 384.254 372.265 382.599 375.207 379.652C378.15 376.706 379.803 372.71 379.803 368.543C379.803 364.376 378.15 360.38 375.207 357.434C372.265 354.488 368.274 352.832 364.112 352.832H159.585Z" fill="#A4BCFD"/>
<path d="M376.172 425.04H285.914C284.649 425.04 283.435 424.537 282.541 423.641C281.646 422.745 281.144 421.531 281.144 420.264C281.144 418.997 281.646 417.782 282.541 416.887C283.435 415.991 284.649 415.488 285.914 415.488H376.172C377.437 415.488 378.651 415.991 379.545 416.887C380.44 417.782 380.942 418.997 380.942 420.264C380.942 421.531 380.44 422.745 379.545 423.641C378.651 424.537 377.437 425.04 376.172 425.04Z" fill="#A4BCFD"/>
<defs>
<radialGradient id="paint0_radial_5_197" cx="0" cy="0" r="1" gradientUnits="userSpaceOnUse" gradientTransform="translate(322 303) rotate(90) scale(303)">
<stop stop-color="#444CE7" stop-opacity="0.81"/>
<stop offset="1" stop-color="#444CE7" stop-opacity="0.29"/>
</radialGradient>
<linearGradient id="paint1_linear_5_197" x1="194.047" y1="1.87602e-06" x2="379.757" y2="597.559" gradientUnits="userSpaceOnUse">
<stop stop-color="#444CE7" stop-opacity="0.81"/>
<stop offset="1" stop-opacity="0"/>
</linearGradient>
<radialGradient id="paint2_radial_5_197" cx="0" cy="0" r="1" gradientUnits="userSpaceOnUse" gradientTransform="translate(322 302) rotate(90) scale(264)">
<stop stop-color="#444CE7" stop-opacity="0.81"/>
<stop offset="1" stop-color="#444CE7" stop-opacity="0.29"/>
</radialGradient>
<linearGradient id="paint3_linear_5_197" x1="322" y1="38" x2="375.333" y2="536.667" gradientUnits="userSpaceOnUse">
<stop stop-color="#A4BCFD"/>
<stop offset="1" stop-color="#444CE7" stop-opacity="0.81"/>
</linearGradient>
</defs>
</svg>
