<svg xmlns="http://www.w3.org/2000/svg" id="Layer_1" data-name="Layer 1" viewBox="0 0 64 64"><defs><style>.cls-1{fill:#f4fbfa;}.cls-2{fill:none;}.cls-3{fill:#035f62;stroke:#a6d8cd;}.cls-3,.cls-4{stroke-miterlimit:10;stroke-width:0.46px;}.cls-4{fill:#a6d8cd;stroke:#035f62;}</style></defs><rect class="cls-1" width="64" height="64" rx="8"/><rect class="cls-2" width="64" height="64"/><path class="cls-3" d="M59.5,51.43v1.63h-33V51.43a3,3,0,0,1,3-3h8.85l1.69-3.63H31.47a1,1,0,0,1-1-1v-1.7h10.9l.6-1.3a3.5,3.5,0,0,1,5.5-1.14A7.7,7.7,0,0,0,51.16,34a7.62,7.62,0,0,0-2-5.9,1.19,1.19,0,0,0-1-.39,10.39,10.39,0,0,1-1.64.1,10.84,10.84,0,0,1-1.16-.06,1.89,1.89,0,0,0-1.92,1.12l-1.59,3.54a.12.12,0,0,1-.17.05L41,32.13a.12.12,0,0,0-.16,0l-.95,1.61a1.58,1.58,0,0,1-2,.63h0a1.59,1.59,0,0,1-.78-2.09l.27-.59A.93.93,0,0,0,37,30.52h0a.93.93,0,0,0-1,.13l-1.35,1.2a1.49,1.49,0,0,1-2,0h0a1.5,1.5,0,0,1-.07-2.19l1.34-1.34a.32.32,0,0,0-.07-.5l-.4-.24a.33.33,0,0,1-.05-.52l.58-.52a8.84,8.84,0,0,0,1.66-2l5.94-10.14a.45.45,0,0,1,.54-.2l.6.23a.45.45,0,0,0,.55-.19h0a.44.44,0,0,0-.12-.59l-.25-.19a.44.44,0,0,1-.12-.59l.66-1.13a.62.62,0,0,1,.86-.22l6.06,3.62a.55.55,0,0,1,.2.75l-.43.77a.56.56,0,0,1-.49.28h-.52a.56.56,0,0,0-.51.33l-.22.49a.55.55,0,0,0,.23.71A16.54,16.54,0,0,1,56.9,33.62c-.46,6.25-4.75,10.16-6.34,11.43l1.77,3.35h4.14A3,3,0,0,1,59.5,51.43Z"/><rect class="cls-3" x="26.84" y="37.96" width="14.3" height="3.09" rx="1.54"/><circle class="cls-4" cx="45.46" cy="43.66" r="2.29"/><circle class="cls-4" cx="46.32" cy="23.15" r="3.33"/><path class="cls-4" d="M23.28,47.73H9.08a2.56,2.56,0,0,1-2.23-3.8l3.43-6.18H21.82l3.65,6.11A2.55,2.55,0,0,1,23.28,47.73Z"/><circle class="cls-4" cx="13.61" cy="41.96" r="1.28"/><circle class="cls-4" cx="18.55" cy="42.91" r="1.47"/><path class="cls-4" d="M9.14,48.75A3.61,3.61,0,0,1,6,43.37l3.41-6.12L12.29,32v-4.6h2v4.74a1.47,1.47,0,0,1-.19.73l-3,5.34L7.77,44.37a1.58,1.58,0,0,0,1.37,2.34H23.3a1.56,1.56,0,0,0,1.37-.81,1.54,1.54,0,0,0,0-1.59l-3.7-6-3.19-5.33a1.5,1.5,0,0,1-.22-.77v-5h2V32l3.11,5.2,3.7,6a3.62,3.62,0,0,1-3.09,5.51Z"/><path class="cls-4" d="M19.24,27.54v4.57L22.4,37.4l3.7,6a3.28,3.28,0,0,1-2.8,5H9.14a3.28,3.28,0,0,1-2.86-4.87l3.41-6.12,2.94-5.29V27.78H14v4.4a1.12,1.12,0,0,1-.15.56l-3,5.34L7.47,44.2a1.92,1.92,0,0,0,1.67,2.85H23.3a1.9,1.9,0,0,0,1.67-1,1.88,1.88,0,0,0,0-1.94l-3.7-6L18,32.77a1.16,1.16,0,0,1-.17-.6V27.54h1.37m.68-.68H17.19v5.31a1.89,1.89,0,0,0,.26.95l3.2,5.33h0l3.7,6a1.2,1.2,0,0,1,0,1.24,1.22,1.22,0,0,1-1.08.63H9.14a1.22,1.22,0,0,1-1.07-1.83l3.4-6.12,3-5.34a1.84,1.84,0,0,0,.23-.89V27.1H11.94V32L9.09,37.09,5.68,43.21a4,4,0,0,0,3.46,5.88H23.3a4,4,0,0,0,3.38-6L23,37l-3.06-5.12V26.86Z"/><path class="cls-4" d="M19.05,28.33H13a1.84,1.84,0,0,1-1.85-1.84h0A1.85,1.85,0,0,1,13,24.64h6.09a1.85,1.85,0,0,1,1.85,1.85h0A1.84,1.84,0,0,1,19.05,28.33Z"/><rect class="cls-4" x="12.7" y="25.92" width="6.95" height="1.26" rx="0.57"/><circle class="cls-4" cx="46.32" cy="23.15" r="1.49"/></svg>