<svg xmlns="http://www.w3.org/2000/svg" id="Layer_1" data-name="Layer 1" viewBox="0 0 64 64"><defs><style>.cls-1{fill:#f4fbfa;}.cls-2{fill:none;}.cls-3{fill:#035f62;}.cls-4{fill:#a6d8cd;stroke:#035f62;stroke-miterlimit:10;stroke-width:0.26px;}</style></defs><rect class="cls-1" width="64" height="64" rx="8"/><rect class="cls-2" width="64" height="64"/><rect class="cls-3" x="31.61" y="10.97" width="1.82" height="9.69"/><path class="cls-3" d="M32.33,15H35.7a.87.87,0,0,0,.83-.54,1.56,1.56,0,0,0,.12-.6,1.4,1.4,0,0,0-.12-.6.82.82,0,0,0-.33-.4.92.92,0,0,0-.5-.14H32.33V11h3.52a2.74,2.74,0,0,1,1.41.36,2.42,2.42,0,0,1,.93,1,3.21,3.21,0,0,1,.34,1.52,3.19,3.19,0,0,1-.34,1.52,2.38,2.38,0,0,1-.94,1,2.68,2.68,0,0,1-1.4.36H32.33Z"/><polygon class="cls-3" points="41.72 24.59 39.73 24.59 34.37 16.47 36.32 16.16 41.72 24.59"/><polygon class="cls-3" points="41.83 16.77 36.49 24.59 34.51 24.59 39.7 16.77 41.83 16.77"/><polygon class="cls-3" points="16.22 6.87 16.22 8.46 11.42 13.29 9.85 13.29 9.85 16.45 19.38 16.45 19.38 6.87 16.22 6.87"/><rect class="cls-4" x="15.44" y="22.92" width="12.7" height="2.16"/><rect class="cls-4" x="15.44" y="29.28" width="21.65" height="2.16"/><rect class="cls-4" x="15.44" y="35.14" width="21.65" height="2.16"/><rect class="cls-4" x="15.44" y="41" width="6.94" height="2.16"/><path class="cls-3" d="M25.26,51H11V15.7l7.52-7.52H45.32V25.41a9.76,9.76,0,0,1,3.16-.63V5H17.17L7.8,14.39V54.15H25.44A11.16,11.16,0,0,1,25.26,51Z"/><path class="cls-3" d="M41.06,45.15A8.35,8.35,0,0,0,29.42,56.79Z"/><path class="cls-3" d="M43.06,47.15,31.42,58.79h0A8.34,8.34,0,0,0,43.07,47.17Z"/><path class="cls-3" d="M43.83,43.62l1.42,2a11,11,0,0,1,1.08,10.82,7,7,0,0,0,2.47.45,7.06,7.06,0,0,0,7.06-7.06V43.62Z"/><path class="cls-3" d="M48.8,27.43a7.06,7.06,0,0,0-7.06,7.06v6.22H55.86V34.49A7.06,7.06,0,0,0,48.8,27.43Zm.1,3.68a3.4,3.4,0,0,0-3.4,3.4v.11a.75.75,0,1,1-1.5,0v-.11a4.91,4.91,0,0,1,4.9-4.9.75.75,0,0,1,0,1.5Z"/></svg>