<svg xmlns="http://www.w3.org/2000/svg" id="Layer_1" data-name="Layer 1" viewBox="0 0 64 64"><defs><style>.cls-1{fill:#f4fbfa;}.cls-2{fill:none;}.cls-3,.cls-5{fill:#035f62;}.cls-3{fill-rule:evenodd;}.cls-4{fill:#a6d8cd;stroke:#035f62;stroke-miterlimit:10;stroke-width:0.09px;}</style></defs><rect class="cls-1" x="-0.11" width="64" height="64" rx="8"/><rect class="cls-2" x="-0.11" width="64" height="64"/><path class="cls-3" d="M54.58,50.23l5.12,4.4a2.22,2.22,0,0,1,0,3.24h0a2.29,2.29,0,0,1-3.25,0l-4.39-5.12a.72.72,0,0,1,.07-1c.43-.43,1-1,1.44-1.44a.73.73,0,0,1,1-.07Z"/><path class="cls-3" d="M10.94,8.61h4.68v2.05a1.74,1.74,0,0,0,.47,1.19h0a1.74,1.74,0,0,0,1.19.47H35.59a1.78,1.78,0,0,0,1.19-.47h0a1.78,1.78,0,0,0,.46-1.19V8.61h4.69a4,4,0,0,1,3.75,4.18V32.64a.72.72,0,0,1-.72.72,10.14,10.14,0,0,0-6.89,3A10.07,10.07,0,0,0,43.59,53.4a.74.74,0,0,1,.61.54.78.78,0,0,1-.33.76,3.31,3.31,0,0,1-1.94.61h-31a4,4,0,0,1-3.75-4.18V12.79a4,4,0,0,1,3.75-4.18ZM27.12,18a7.66,7.66,0,0,1,3.49-2.6,6.47,6.47,0,0,1,6.63,1.48,6.8,6.8,0,0,1,2.09,4.94,15.17,15.17,0,0,1-3.31,9,28.82,28.82,0,0,1-9.08,7.5.74.74,0,0,1-.76,0,28.82,28.82,0,0,1-9.08-7.5,18.45,18.45,0,0,1-2-3.31H11.87a.79.79,0,0,1-.75-.76.76.76,0,0,1,.75-.75H14.5a13.17,13.17,0,0,1-.72-4.18,6.84,6.84,0,0,1,2.09-4.94,6.49,6.49,0,0,1,6.63-1.48A7.64,7.64,0,0,1,26,18a.66.66,0,0,0,.54.28.71.71,0,0,0,.58-.28ZM12.77,49.69a.76.76,0,0,1-.75-.76.74.74,0,0,1,.75-.76H30a.74.74,0,0,1,.75.76.76.76,0,0,1-.75.76Zm0-4.61a.76.76,0,0,1,0-1.52H28.41a.76.76,0,1,1,0,1.52Z"/><path class="cls-4" d="M39.15,37.4a8.45,8.45,0,0,0-2.52,6.05,8.69,8.69,0,0,0,2.52,6.06A8.53,8.53,0,0,0,45.21,52a8.48,8.48,0,0,0,8.54-8.54,8.56,8.56,0,0,0-14.6-6.05Zm2.2,2.23a.73.73,0,0,1-1,0,.71.71,0,0,1,0-1.08,6.75,6.75,0,0,1,4.9-2,6.88,6.88,0,0,1,4.9,2A.76.76,0,1,1,49,39.63a5.51,5.51,0,0,0-3.82-1.58,5.37,5.37,0,0,0-3.86,1.58Z"/><path class="cls-5" d="M33.57,6.48H19.3a2.2,2.2,0,0,0-2.16,2.16v2a.15.15,0,0,0,0,.11h0s.07,0,.11,0H35.59l.1,0h0a.13.13,0,0,0,0-.11v-2a2.07,2.07,0,0,0-.65-1.51,2,2,0,0,0-1.51-.65Z"/><path class="cls-4" d="M31.12,16.82a7.24,7.24,0,0,0-3.89,3.82,1,1,0,0,1-.33.36.73.73,0,0,1-1-.36A7.34,7.34,0,0,0,22,16.82,4.92,4.92,0,0,0,16.92,18,5.26,5.26,0,0,0,15.3,21.8,11.4,11.4,0,0,0,16.13,26h3.49l2.13-4.83a.76.76,0,0,1,1-.4.67.67,0,0,1,.39.43l3.46,9,3-6.92a.82.82,0,0,1,1-.4.8.8,0,0,1,.39.4L32.31,26h1.94a.76.76,0,0,1,.76.75.79.79,0,0,1-.76.76H31.84a.82.82,0,0,1-.69-.43l-.83-1.7-3.06,7.1a.88.88,0,0,1-.43.44.77.77,0,0,1-1-.47l-3.46-9L20.85,27a.8.8,0,0,1-.72.5H16.81a18.46,18.46,0,0,0,1.51,2.38,27,27,0,0,0,8.22,6.92,27,27,0,0,0,8.25-6.92,13.48,13.48,0,0,0,3-8.07A5.23,5.23,0,0,0,36.2,18a5,5,0,0,0-2.34-1.3,4.77,4.77,0,0,0-2.74.14Z"/></svg>