<svg xmlns="http://www.w3.org/2000/svg" id="Layer_1" data-name="Layer 1" viewBox="0 0 64 64"><defs><style>.cls-1{fill:#f4fbfa;}.cls-2{fill:none;}.cls-3{fill:#a6d8cd;}.cls-4{fill:#035f62;}</style></defs><rect class="cls-1" width="64" height="64" rx="8"/><rect class="cls-2" width="64" height="64"/><path class="cls-3" d="M23.15,36.17H21.47a.94.94,0,0,1-.94-.94v-2h-2a.94.94,0,0,1-.94-.94V30.62a.94.94,0,0,1,.94-.93h2v-2a.94.94,0,0,1,.94-.93h1.68a.93.93,0,0,1,.93.93v2h2a.93.93,0,0,1,.93.93V32.3a.94.94,0,0,1-.93.94h-2v2A.94.94,0,0,1,23.15,36.17ZM21.9,31.46a1,1,0,0,1,.41.41,1,1,0,0,1,.41-.41.9.9,0,0,1-.41-.41A1,1,0,0,1,21.9,31.46Z"/><path class="cls-4" d="M47.25,38.37a.94.94,0,0,1-.66-.28L36.13,27.63a7.45,7.45,0,0,1,0-10.53,7.46,7.46,0,0,1,10.53,0l.59.59.6-.59A7.45,7.45,0,0,1,58.38,27.63L47.92,38.09A1,1,0,0,1,47.25,38.37ZM41.4,16.8a5.57,5.57,0,0,0-3.94,9.51l9.79,9.79,9.8-9.79a5.57,5.57,0,1,0-7.88-7.88l-1.25,1.25a.94.94,0,0,1-1.33,0l-1.25-1.25A5.56,5.56,0,0,0,41.4,16.8Z"/><path class="cls-4" d="M19.47,53.79H10.66a.94.94,0,0,1-.94-.94V15.4a.94.94,0,0,1,.94-.93H34.89a.94.94,0,1,1,0,1.87H11.6V51.91h7.87a.94.94,0,0,1,0,1.88Z"/><path class="cls-4" d="M34.89,53.79H26.08a.94.94,0,0,1,0-1.88H34V34.13a.94.94,0,0,1,1.88,0V52.85A.94.94,0,0,1,34.89,53.79Z"/><path class="cls-4" d="M26.08,60.4H19.47a.94.94,0,0,1-.94-.94V52.85a.94.94,0,1,1,1.88,0v5.67h4.73V52.85a.94.94,0,1,1,1.87,0v6.61A.94.94,0,0,1,26.08,60.4Z"/><path class="cls-4" d="M28.28,12.27a.94.94,0,0,1-.94-.94V9.73H18.2V11a.94.94,0,1,1-1.87,0V8.8a.94.94,0,0,1,.94-.94h11a.94.94,0,0,1,.94.94v2.53A.94.94,0,0,1,28.28,12.27Z"/><path class="cls-4" d="M30.48,40.57H15.06a.94.94,0,0,1-.94-.94V22a.94.94,0,0,1,.94-.94H30.48a.94.94,0,0,1,.94.94V39.63A.94.94,0,0,1,30.48,40.57ZM16,38.7H29.54V23H16Z"/><path class="cls-3" d="M46.15,27.36a.94.94,0,0,1-.36-.08.92.92,0,0,1-.58-.86V24.28l-.6.6a.94.94,0,0,1-.66.27H39.54a.94.94,0,0,1,0-1.87h4l1.93-1.93a.93.93,0,0,1,1.6.66v2.14l2.8-2.8a1,1,0,0,1,.67-.28H55A.94.94,0,0,1,55,23H51l-4.13,4.13A1,1,0,0,1,46.15,27.36Z"/></svg>