<svg xmlns="http://www.w3.org/2000/svg" id="Layer_1" data-name="Layer 1" viewBox="0 0 64 64"><defs><style>.cls-1{fill:#f4fbfa;}.cls-2{fill:none;}.cls-3{fill:#a6d8cd;stroke:#035f62;stroke-miterlimit:10;stroke-width:0.3px;}.cls-4{fill:#035f62;}</style></defs><rect class="cls-1" width="64" height="64" rx="8"/><rect class="cls-2" width="64" height="64"/><rect class="cls-3" x="39.06" y="44.22" width="12.6" height="9.9" transform="translate(90.72 98.33) rotate(180)"/><path class="cls-4" d="M40.33,34.6H54.21V31a2,2,0,0,0-2-2h-10a2,2,0,0,0-2,2Z"/><path class="cls-4" d="M38.46,55.75a3.86,3.86,0,0,0,3.85,3.86h9.91a3.86,3.86,0,0,0,3.86-3.86V42.85a3.73,3.73,0,0,0-1.81-3.19c-1-.57-1.45-1.26-1.45-3.51h-2c0,2.28.41,4.05,2.43,5.25a1.67,1.67,0,0,1,.82,1.45v12.9a1.84,1.84,0,0,1-1.84,1.84H42.31a1.83,1.83,0,0,1-1.83-1.84V42.85a1.67,1.67,0,0,1,.82-1.45c2-1.2,2.43-3,2.43-5.25h-2c0,2.25-.48,2.94-1.44,3.51a3.71,3.71,0,0,0-1.81,3.19Z"/><path class="cls-3" d="M47.52,12.58c-1.28,2.14-3.34,3.71-3.28,6.14.11,4.22,6.44,4.22,6.55,0C50.86,16.29,48.8,14.72,47.52,12.58Z"/><rect class="cls-3" x="30.65" y="25.46" width="1.89" height="5.83" transform="translate(-10.41 34.6) rotate(-50.36)"/><rect class="cls-3" x="28.05" y="28.59" width="1.89" height="5.83" transform="translate(-13.76 33.74) rotate(-50.37)"/><rect class="cls-3" x="25.43" y="32.05" width="1.89" height="5.83" transform="translate(-17.38 32.98) rotate(-50.37)"/><rect class="cls-3" x="15.48" y="35.74" width="6.82" height="8.69" transform="translate(29.91 -2.83) rotate(39.63)"/><path class="cls-4" d="M19.2,51,8.07,41.82,25.52,20.76a5.06,5.06,0,0,1,7.13-.45l3.11,2.58A5.07,5.07,0,0,1,36.65,30ZM11,41.64l7.83,6.48L35,28.61a3,3,0,0,0-.53-4.17l-3.11-2.57a3,3,0,0,0-4.19.26Z"/><path class="cls-4" d="M35.63,23.74l-4.09-3.38,3.29-4A2.65,2.65,0,0,1,38.56,16h0a2.65,2.65,0,0,1,.35,3.74Z"/><path class="cls-4" d="M38.07,16.64a.78.78,0,0,1-.1-1.1L46.58,5.15a.77.77,0,0,1,1.09-.1.78.78,0,0,1,.1,1.09L39.16,16.53A.78.78,0,0,1,38.07,16.64Z"/><rect class="cls-4" x="7.21" y="47.06" width="5.96" height="7" transform="translate(34.59 5.12) rotate(39.63)"/><path class="cls-4" d="M21,52.56a1.34,1.34,0,0,1-.69-.28L6.65,41A1.24,1.24,0,0,1,8.24,39L21.91,50.36a1.25,1.25,0,0,1-.9,2.2Z"/><path class="cls-4" d="M12.14,57.54a1.29,1.29,0,0,1-.69-.29L3.38,50.57A1.24,1.24,0,0,1,5,48.65L13,55.34a1.25,1.25,0,0,1-.9,2.2Z"/></svg>