<svg xmlns="http://www.w3.org/2000/svg" id="Layer_1" data-name="Layer 1" viewBox="0 0 64 64"><defs><style>.cls-1{fill:#f4fbfa;}.cls-2{fill:none;}.cls-3{fill:#035f62;stroke:#a6d8cd;stroke-miterlimit:10;stroke-width:0.49px;}</style></defs><rect class="cls-1" width="64" height="64" rx="8"/><rect class="cls-2" width="64" height="64"/><path class="cls-3" d="M42.22,58.36H25a.78.78,0,1,1,0-1.56H42.22a.78.78,0,0,1,0,1.56Z"/><path class="cls-3" d="M40.3,54.42H26.44a.78.78,0,1,1,0-1.56H40.3a.78.78,0,0,1,0,1.56Z"/><path class="cls-3" d="M37.79,50.79H28.24a.78.78,0,1,1,0-1.56h9.55a.78.78,0,0,1,0,1.56Z"/><path class="cls-3" d="M39.76,39.37H26.54a.78.78,0,0,1,0-1.56H39.76a.78.78,0,0,1,0,1.56Z"/><path class="cls-3" d="M41,35.64H24.36a.78.78,0,0,1,0-1.56H41a.78.78,0,1,1,0,1.56Z"/><path class="cls-3" d="M41,31.54H25.14a.78.78,0,1,1,0-1.56H41a.78.78,0,0,1,0,1.56Z"/><path class="cls-3" d="M38.81,27.44H27.15a.78.78,0,0,1,0-1.56H38.81a.78.78,0,0,1,0,1.56Z"/><path class="cls-3" d="M38.38,15.83H27.1a.78.78,0,0,1,0-1.56H38.38a.78.78,0,0,1,0,1.56Z"/><path class="cls-3" d="M41.42,11.51H25.27a.78.78,0,0,1,0-1.56H41.42a.78.78,0,0,1,0,1.56Z"/><path class="cls-3" d="M31.06,59.43a1.85,1.85,0,1,1,1.85-1.85A1.85,1.85,0,0,1,31.06,59.43Z"/><path class="cls-3" d="M31.06,56.19a1.39,1.39,0,1,1-1.39,1.39,1.4,1.4,0,0,1,1.39-1.39m0-.9a2.3,2.3,0,1,0,2.3,2.29,2.3,2.3,0,0,0-2.3-2.29Z"/><path class="cls-3" d="M36.49,55.48a1.85,1.85,0,1,1,1.84-1.84A1.84,1.84,0,0,1,36.49,55.48Z"/><path class="cls-3" d="M36.49,52.25a1.39,1.39,0,1,1-1.39,1.39,1.39,1.39,0,0,1,1.39-1.39m0-.91a2.3,2.3,0,1,0,2.3,2.3,2.3,2.3,0,0,0-2.3-2.3Z"/><circle class="cls-3" cx="33.22" cy="50.01" r="1.84"/><path class="cls-3" d="M33.22,48.62A1.4,1.4,0,1,1,31.83,50a1.39,1.39,0,0,1,1.39-1.39m0-.9A2.3,2.3,0,1,0,35.52,50a2.3,2.3,0,0,0-2.3-2.29Z"/><path class="cls-3" d="M33.37,40.44a1.85,1.85,0,1,1,1.84-1.85A1.85,1.85,0,0,1,33.37,40.44Z"/><path class="cls-3" d="M33.37,37.2A1.4,1.4,0,1,1,32,38.59a1.39,1.39,0,0,1,1.39-1.39m0-.9a2.3,2.3,0,1,0,2.29,2.29,2.3,2.3,0,0,0-2.29-2.29Z"/><path class="cls-3" d="M37.79,36.71a1.85,1.85,0,1,1,1.85-1.85A1.84,1.84,0,0,1,37.79,36.71Z"/><path class="cls-3" d="M37.79,33.47a1.39,1.39,0,1,1-1.39,1.39,1.39,1.39,0,0,1,1.39-1.39m0-.9a2.3,2.3,0,1,0,2.3,2.29,2.3,2.3,0,0,0-2.3-2.29Z"/><path class="cls-3" d="M31.06,32.6a1.85,1.85,0,1,1,1.85-1.84A1.84,1.84,0,0,1,31.06,32.6Z"/><path class="cls-3" d="M31.06,29.37a1.39,1.39,0,1,1-1.39,1.39,1.4,1.4,0,0,1,1.39-1.39m0-.91a2.3,2.3,0,1,0,2.3,2.3,2.3,2.3,0,0,0-2.3-2.3Z"/><circle class="cls-3" cx="34.61" cy="26.66" r="1.84"/><path class="cls-3" d="M34.61,25.26a1.4,1.4,0,1,1-1.39,1.4,1.4,1.4,0,0,1,1.39-1.4m0-.9a2.3,2.3,0,1,0,2.3,2.3,2.3,2.3,0,0,0-2.3-2.3Z"/><circle class="cls-3" cx="33.09" cy="15.05" r="1.84"/><path class="cls-3" d="M33.09,13.66a1.39,1.39,0,1,1-1.39,1.39,1.39,1.39,0,0,1,1.39-1.39m0-.91a2.3,2.3,0,1,0,2.29,2.3,2.3,2.3,0,0,0-2.29-2.3Z"/><path class="cls-3" d="M31.06,12.58a1.85,1.85,0,1,1,1.85-1.85A1.85,1.85,0,0,1,31.06,12.58Z"/><path class="cls-3" d="M31.06,9.34a1.4,1.4,0,1,1-1.39,1.39,1.4,1.4,0,0,1,1.39-1.39m0-.9a2.3,2.3,0,1,0,2.3,2.29,2.3,2.3,0,0,0-2.3-2.29Z"/><path class="cls-3" d="M42.31,60.35a1.82,1.82,0,0,1-1.79-1.55,15.91,15.91,0,0,0-2.84-7.22c-1-1.33-2.81-2.82-6.85-6.06L29,44.09c-2.87-2.26-4.31-3.4-5.59-5.7l0-.06a10.81,10.81,0,0,1-1.34-5.22,10.94,10.94,0,0,1,1.33-5.21c.22-.41.46-.81.7-1.19C26.43,23,29.24,21.27,32,19.55c2.28-1.44,4.44-2.8,6.12-5.3A15.53,15.53,0,0,0,40.51,7.3a1.81,1.81,0,0,1,1.8-1.59h.22a1.82,1.82,0,0,1,1.21.68,1.77,1.77,0,0,1,.37,1.33,19.21,19.21,0,0,1-3,8.55c-2.11,3.13-4.7,4.76-7.2,6.34s-4.83,3.05-6.74,6c-.2.31-.4.64-.58,1a7.21,7.21,0,0,0,0,7l0,.05c.93,1.66,2,2.53,4.68,4.61l1.82,1.45c4,3.21,6.21,5,7.51,6.74a19.5,19.5,0,0,1,3.51,8.85,1.83,1.83,0,0,1-1.54,2.06Z"/><path class="cls-3" d="M42.31,6.08h.17a1.45,1.45,0,0,1,1.26,1.6,19,19,0,0,1-3,8.38c-2.07,3.06-4.62,4.67-7.09,6.23s-4.9,3.1-6.86,6.16c-.21.32-.4.65-.59,1a7.59,7.59,0,0,0,0,7.31l0,.05c1,1.73,2.08,2.61,4.77,4.73L32.86,43c4,3.18,6.17,4.93,7.44,6.67a19,19,0,0,1,3.43,8.68A1.43,1.43,0,0,1,42.52,60l-.21,0a1.44,1.44,0,0,1-1.42-1.23A16.17,16.17,0,0,0,38,51.36c-1-1.37-2.85-2.87-6.93-6.13-.66-.54-1.27-1-1.8-1.44-2.84-2.23-4.26-3.35-5.5-5.58l0-.06a10.51,10.51,0,0,1,0-10.07q.33-.6.69-1.17c2.3-3.6,5.07-5.35,7.75-7,2.32-1.46,4.51-2.84,6.24-5.41a16,16,0,0,0,2.5-7.11,1.44,1.44,0,0,1,1.42-1.27m0-.75v0a2.18,2.18,0,0,0-2.17,1.93A15.35,15.35,0,0,1,37.76,14c-1.64,2.44-3.76,3.78-6,5.19-2.75,1.74-5.59,3.53-8,7.27-.25.4-.5.81-.72,1.22a11.31,11.31,0,0,0-1.38,5.39,11.19,11.19,0,0,0,1.39,5.4l0,.06c1.32,2.37,2.87,3.59,5.69,5.82.53.42,1.14.89,1.8,1.43,4,3.21,5.84,4.69,6.79,6a15.54,15.54,0,0,1,2.76,7.05,2.19,2.19,0,0,0,.74,1.35,2.22,2.22,0,0,0,1.43.53l.31,0a2.2,2.2,0,0,0,1.45-.86,2.17,2.17,0,0,0,.41-1.62,19.92,19.92,0,0,0-3.57-9c-1.34-1.81-3.55-3.59-7.58-6.81-.68-.55-1.29-1-1.83-1.45-2.68-2.12-3.69-2.91-4.58-4.51l0,0a6.81,6.81,0,0,1,0-6.58c.17-.32.36-.64.56-.95,1.86-2.92,4.18-4.38,6.63-5.92s5.15-3.25,7.3-6.45a19.57,19.57,0,0,0,3.1-8.71A2.13,2.13,0,0,0,44,6.17a2.18,2.18,0,0,0-1.46-.83Z"/><path class="cls-3" d="M23.86,60.35H23.6a1.83,1.83,0,0,1-1.53-2.06,19.38,19.38,0,0,1,3.5-8.85c1.3-1.77,3.51-3.53,7.51-6.74l1.82-1.44h0c2.65-2.08,3.74-3,4.67-4.62l0,0a7.21,7.21,0,0,0,0-6.95c-.18-.33-.37-.66-.57-1-1.91-3-4.26-4.47-6.75-6s-5.08-3.21-7.19-6.34a19.34,19.34,0,0,1-3-8.55,1.82,1.82,0,0,1,1.59-2h.21a1.81,1.81,0,0,1,1.8,1.59,15.65,15.65,0,0,0,2.44,7c1.69,2.5,3.84,3.86,6.12,5.3,2.72,1.72,5.52,3.49,7.87,7.16.25.38.48.78.7,1.19a10.94,10.94,0,0,1,1.33,5.21,10.81,10.81,0,0,1-1.34,5.22l0,.06c-1.29,2.3-2.73,3.44-5.6,5.7l-1.8,1.43c-4.05,3.24-5.88,4.73-6.86,6.06a15.9,15.9,0,0,0-2.83,7.22A1.82,1.82,0,0,1,23.86,60.35Z"/><path class="cls-3" d="M23.86,6.08a1.45,1.45,0,0,1,1.43,1.27,16,16,0,0,0,2.5,7.11C29.52,17,31.71,18.41,34,19.87c2.68,1.69,5.45,3.44,7.75,7,.24.38.48.77.69,1.17a10.54,10.54,0,0,1,1.29,5,10.38,10.38,0,0,1-1.3,5l0,.07c-1.25,2.23-2.67,3.35-5.5,5.58l-1.81,1.44C31,48.49,29.19,50,28.19,51.36a16.18,16.18,0,0,0-2.91,7.39A1.43,1.43,0,0,1,23.86,60l-.2,0a1.43,1.43,0,0,1-1.22-1.62,19,19,0,0,1,3.44-8.68c1.27-1.74,3.46-3.49,7.44-6.67l1.82-1.45c2.69-2.12,3.81-3,4.77-4.73l0-.05a7.54,7.54,0,0,0,0-7.31c-.18-.34-.38-.67-.59-1-2-3.06-4.33-4.57-6.86-6.16s-5-3.17-7.08-6.23a18.79,18.79,0,0,1-3-8.38,1.43,1.43,0,0,1,1.25-1.6h.17m0-.75H23.6a2.2,2.2,0,0,0-1.91,2.44,19.68,19.68,0,0,0,3.09,8.71c2.16,3.2,4.78,4.85,7.31,6.45s4.76,3,6.63,5.92c.19.31.38.63.56.95a6.81,6.81,0,0,1,0,6.58l0,0c-.89,1.6-1.89,2.39-4.58,4.51h0L32.85,42.4c-4,3.22-6.25,5-7.58,6.81a19.7,19.7,0,0,0-3.57,9,2.18,2.18,0,0,0,1.85,2.48l.31,0A2.19,2.19,0,0,0,26,58.85,15.44,15.44,0,0,1,28.8,51.8c.95-1.29,2.76-2.77,6.78-6l1.8-1.43h0c2.81-2.23,4.37-3.45,5.69-5.82l0-.06a11.19,11.19,0,0,0,1.39-5.4,11.31,11.31,0,0,0-1.38-5.39c-.22-.41-.46-.82-.71-1.22-2.39-3.74-5.24-5.53-8-7.27-2.25-1.41-4.38-2.75-6-5.19A15.22,15.22,0,0,1,26,7.26a2.2,2.2,0,0,0-2.18-1.93Z"/></svg>